<?xml version="1.0" encoding="UTF-8" standalone="no"?>
<!-- Created with Inkscape (http://www.inkscape.org/) -->

<svg
    xmlns:dc="http://purl.org/dc/elements/1.1/"
    xmlns:cc="http://creativecommons.org/ns#"
    xmlns:rdf="http://www.w3.org/1999/02/22-rdf-syntax-ns#"
    xmlns:svg="http://www.w3.org/2000/svg"
    xmlns="http://www.w3.org/2000/svg"
    version="1.1"
    width="85.4375"
    height="85.96875"
    id="svg2">
    <metadata
        id="metadata8">
        <rdf:RDF>
            <cc:Work
                rdf:about="">
                <dc:format>image/svg+xml</dc:format>
                <dc:type
                    rdf:resource="http://purl.org/dc/dcmitype/StillImage" />
                <dc:title></dc:title>
            </cc:Work>
        </rdf:RDF>
    </metadata>
  
    <style>
        svg path{
        animation-fill-mode: forwards;
        animation-iteration-count: 1;
        animation-timing-function: linear;
        animation-duration: 10s;
        stroke-opacity:1;
        }
        
        g#logo_bt path{
        stroke-dashoffset: 2000;
        stroke-dasharray : 2000;
        animation-name : draw;
        }
        
        g#logo_bt path#bg{
        stroke-dashoffset: 10000;
        stroke-dasharray : 10000;
        animation-name : draw;
        }

        @keyframes draw {
        to {stroke-dashoffset: 0;}
        }

    </style>
    <defs
        id="defs6" />
    <g
        transform="matrix(0.46399986,0,0,0.46399986,-54.807478,29.448282)"
        id="g3916">
        <g
            id="logo_bt">
            <path
                d="m 58.516082,825.96933 c 0,0 5.528017,-11.86501 6.336996,-8.35944 0.808978,3.50557 -10.921205,13.88746 -6.876314,12.40433 4.04489,-1.48313 10.516715,-15.9099 10.112226,-11.99984 -0.404489,3.91006 -12.67399,12.40433 -10.516715,14.69643 2.157275,2.29211 13.078479,-22.11206 12.943649,-15.23575 -0.134829,6.87631 -15.505413,17.93235 -12.80882,19.41547 2.696594,1.48313 15.640244,-23.99968 16.449222,-19.14581 0.808978,4.85387 -17.12337,22.92104 -14.966095,23.86485 2.157275,0.94381 20.224452,-27.77491 19.280645,-23.73002 -0.943808,4.04489 -21.707579,29.93219 -20.494112,30.33668 1.213467,0.40449 26.426618,-35.8647 24.943491,-28.98838 -1.483126,6.87631 -28.583893,33.03327 -24.808662,34.78605 3.775232,1.75279 35.325377,-45.97692 31.280487,-36.40401 -4.044891,9.57291 -37.887141,44.62862 -31.550146,43.68482 6.336995,-0.94381 34.381569,-45.8421 34.381569,-43.54999 0,2.2921 -38.29163,49.48249 -34.786058,49.75215 3.505572,0.26966 39.235438,-51.10045 38.965778,-48.53868 -0.269659,2.56176 -40.718564,54.33636 -37.887141,54.20153 2.831424,-0.13483 42.201688,-59.45989 42.336518,-54.60602 0.13483,4.85387 -45.4376,60.53852 -41.932029,60.26887 3.505572,-0.26966 48.049769,-69.9753 46.333669,-60.4414 -1.7161,9.5339 -54.724579,69.78814 -46.525426,67.5 8.199152,-2.28813 51.292376,-75.88983 50.338986,-67.88135 -0.95339,8.00847 -58.156783,73.22033 -51.483054,71.50423 6.673729,-1.7161 54.724574,-73.79237 54.724574,-70.16949 0,3.62288 -57.203388,75.50848 -51.864405,75.12712 5.338983,-0.38136 60.444915,-82.1822 58.156785,-76.65254 -2.28814,5.52966 -56.250005,73.41101 -52.436446,75.12712 3.81356,1.7161 58.347456,-82.37289 56.249996,-75.50848 -2.09745,6.86441 -57.584741,77.0339 -52.436436,76.27119 5.148305,-0.76271 56.249996,-82.94492 55.105936,-75.69915 -1.14407,7.24576 -50.720343,78.94067 -47.097462,75.69915 3.622882,-3.24153 51.864412,-84.27966 50.529662,-76.27119 -1.33475,8.00848 -54.533899,74.55509 -49.76695,77.22458 4.766949,2.66949 55.29661,-80.65678 52.62712,-73.02966 -2.66949,7.62712 -50.148306,75.12712 -45.953391,74.55508 4.194915,-0.57203 51.864411,-83.70763 49.766951,-77.0339 -2.09746,6.67373 -46.716104,76.65255 -44.427968,76.65255 2.288136,0 45.190678,-75.69916 45.381358,-73.22034 0.19068,2.47881 -48.05085,73.60169 -41.377121,73.60169 6.673731,0 42.902541,-73.02966 41.949151,-69.78813 -0.95339,3.24152 -40.995761,70.74152 -36.03813,69.78813 4.95762,-0.95339 35.4661,-67.11864 35.4661,-65.02118 0,2.09745 -32.60593,62.16101 -29.55509,63.68644 3.05085,1.52542 29.55509,-58.72882 29.55509,-57.20339 0,1.52542 -29.74576,56.25 -24.78814,57.9661 4.95763,1.7161 24.97882,-52.62712 24.59746,-49.95763 -0.38136,2.66949 -22.69068,52.8178 -17.92373,50.52966 4.76695,-2.28813 17.3517,-42.33051 17.3517,-42.33051 0,0 -16.97034,48.43221 -10.29661,43.09322 6.67372,-5.33898 7.62711,-41.94915 10.10593,-32.22457 2.47881,9.72457 -8.19915,33.75 -4.3856,29.93644 3.81356,-3.81356 10.86865,-18.87712 7.8178,-12.20339 -3.05085,6.67373 -4.95763,13.15678 -4.95763,13.15678"
                transform="matrix(2.1551731,0,0,2.1551731,2.4137451,-1817.575)"
                id="bg"
                style="fill:#4b346f;fill-opacity:0;stroke:#4b346f;stroke-width:4.29999971;stroke-linecap:butt;stroke-linejoin:miter;stroke-miterlimit:4;stroke-opacity:1;" />
            <path
                d="M 122.71152,-38.817219 122.4255,97.326854 c 1.97015,8.775116 6.24337,19.722026 23.26271,20.688546 l 131.5678,1.14407 c 5.83574,0.0588 25.38136,-4.20575 24.40678,-27.008856 l -0.15796,-129.616729 c -0.25311,-19.765709 -9.83607,-22.837956 -22.36517,-23.574669 l -133.8328,0.20026 c -15.0807,1.486839 -19.8365,10.980739 -22.59534,22.023305 z"
                id="path2987"
                style="fill:none;stroke:#000000;stroke-width:2.15517306px;stroke-linecap:butt;stroke-linejoin:miter;stroke-opacity:1" />
            <path
                d="m 170.09499,-24.135016 -0.38135,105.54025 56.05932,0 c 50.47199,-7.8557 29.89462,-58.004363 12.96611,-56.917368 29.82334,-15.0701148 8.68758,-49.898761 -9.43856,-48.81356 z"
                id="path3802"
                style="fill:#000000;fill-opacity:1;stroke:#000000;stroke-width:2.15517306px;stroke-linecap:butt;stroke-linejoin:miter;stroke-opacity:0" />
            <path
                d="m 188.24552,-9.4217758 0.26966,29.3254558 33.90967,0.13483 c 16.48792,-1.992122 16.53279,-27.6804608 0.13483,-29.3254558 z"
                id="path3804"
                style="fill:#4b346f;fill-opacity:1;stroke:#000000;stroke-width:2.15517306px;stroke-linecap:butt;stroke-linejoin:miter;stroke-opacity:0" />
            <path
                d="m 189.13047,33.999628 0.28907,31.903186 36.35015,0.14668 c 17.67456,-2.16723 17.72266,-30.113593 0.14454,-31.903184 z"
                id="path3804-7"
                style="fill:#4b346f;fill-opacity:1;stroke:#000000;stroke-width:2.32738471px;stroke-linecap:butt;stroke-linejoin:miter;stroke-opacity:0" />
        </g>
    </g>
</svg>
