<?xml version="1.0" encoding="UTF-8" standalone="no"?>
<!-- Created with Inkscape (http://www.inkscape.org/) -->

<svg
    xmlns:dc="http://purl.org/dc/elements/1.1/"
    xmlns:cc="http://creativecommons.org/ns#"
    xmlns:rdf="http://www.w3.org/1999/02/22-rdf-syntax-ns#"
    xmlns:svg="http://www.w3.org/2000/svg"
    xmlns="http://www.w3.org/2000/svg"
    version="1.1"
    width="757"
    height="147"
    id="svg2">
    <metadata
        id="metadata8">
        <rdf:RDF>
            <cc:Work
                rdf:about="">
                <dc:format>image/svg+xml</dc:format>
                <dc:type
                    rdf:resource="http://purl.org/dc/dcmitype/StillImage" />
                <dc:title></dc:title>
            </cc:Work>
        </rdf:RDF>
    </metadata>
    <style>
        svg {
        width: 757px !important;
        }
        svg path{
        animation-fill-mode: forwards;
        animation-iteration-count: 1;
        animation-name: draw;
        animation-timing-function: linear;
        stroke-dashoffset: 2000;
        stroke-dasharray : 2000;
        animation-duration: 10s;
        fill : none;
        stroke:#000000;
        stroke-width : 1px;
        stroke-linecap:butt;
        stroke-linejoin:miter;
        stroke-opacity:1;
        }

        g.e_letter path{
        animation-delay: 500ms;
        }

        g#a_letter path{
        animation-delay: 1000ms;
        }

        g#s_letter path{
        animation-delay: 1500ms;
        }

        g#y_letter path{
        animation-delay: 2000ms;
        }

        g#w_letter2 path{
        animation-delay: 2500ms;
        }

        g#i_letter path{
        animation-delay: 3000ms;
        }

        g#g_letter path{
        animation-delay: 3500ms;
        }

        @keyframes draw {
        to {stroke-dashoffset: 0;}
        }

    </style>
    <defs
        id="defs6" />
    <g
        id="w_letter1">
        <path
            d="m 10.292005,19.655641 56.836445,0.614448 0.153612,0"
            id="path2989"
            style="fill:none;stroke:#000000;stroke-width:1px;stroke-linecap:butt;stroke-linejoin:miter;stroke-opacity:1" />
        <path
            d="m 18.126218,19.041193 37.174107,87.405237 11.981737,-0.92167 24.117086,-62.212869 24.731532,62.980929 12.13535,-0.30723 35.94521,-85.254665"
            id="path2991"
            style="fill:none;stroke:#000000;stroke-width:1px;stroke-linecap:butt;stroke-linejoin:miter;stroke-opacity:1" />
        <path
            d="m 72.197646,19.962865 c 0.76806,0 58.679794,0 58.679794,0 l 0,0 0,0.153612"
            id="path2993"
            style="fill:none;stroke:#000000;stroke-width:1px;stroke-linecap:butt;stroke-linejoin:miter;stroke-opacity:1" />
        <path
            d="m 142.24472,20.577313 36.09883,-0.307224"
            id="path2995"
            style="fill:none;stroke:#000000;stroke-width:1px;stroke-linecap:butt;stroke-linejoin:miter;stroke-opacity:1" />
        <path
            d="m 118.43486,19.194805 2.30418,8.295049 7.6806,22.580966 11.98174,26.574878"
            id="path2997"
            style="fill:none;stroke:#000000;stroke-width:1px;stroke-linecap:butt;stroke-linejoin:miter;stroke-opacity:1" />
        <path
            d="M 55.914773,19.655641 61.598417,34.09517 69.125406,52.375 79.110187,75.416802"
            id="path2999"
            style="fill:none;stroke:#000000;stroke-width:1px;stroke-linecap:butt;stroke-linejoin:miter;stroke-opacity:1" />
        <path
            d="M 91.706372,43.465503 81.107143,20.270089"
            id="path3001"
            style="fill:none;stroke:#000000;stroke-width:1px;stroke-linecap:butt;stroke-linejoin:miter;stroke-opacity:1" />
        <path
            d="m 23.244701,24.476531 c 0,0 13.251651,-6.951686 7.820647,-1.955161 -5.431005,4.996524 -5.431005,4.996524 -5.431005,4.996524 0,0 29.544666,-9.341328 25.634342,-5.213765 -3.910323,4.127564 -33.020509,6.951687 -23.896421,7.820647 9.124088,0.868961 30.848108,-9.993048 26.068823,-5.648245 -4.779284,4.344804 -33.020509,8.906848 -25.417102,9.341329 7.603407,0.43448 30.630867,-8.037887 26.937784,-6.517206 -3.693084,1.520681 -30.413627,11.07925 -23.679181,10.644769 6.734446,-0.43448 29.761906,-8.906848 26.503303,-6.517205 -3.258603,2.389642 -32.368788,9.775808 -25.634343,10.862009 6.734446,1.086201 30.196387,-8.906848 25.851583,-4.996524 -4.344803,3.910323 -28.675705,8.255127 -22.81022,8.472367 5.865485,0.21724 29.110186,-8.255127 25.634343,-5.431005 -3.475843,2.824123 -27.806745,8.906848 -23.244701,8.906848 4.562044,0 31.282588,-7.168926 25.851583,-3.693083 -5.431005,3.475843 -31.717068,5.648245 -25.851583,6.951686 5.865486,1.303441 29.544666,-7.386166 26.503304,-4.996524 -3.041363,2.389642 -31.282588,8.255127 -24.765382,8.037887 6.517206,-0.21724 28.675705,-6.517206 25.417102,-4.779284 -3.258603,1.737921 -29.761906,7.386166 -24.330901,8.255127 5.431005,0.868961 31.065347,-6.734446 26.720543,-5.213765 -4.344803,1.520682 -28.241225,9.775809 -24.548141,9.341329 3.693083,-0.434481 29.761906,-5.865486 24.765382,-4.779285 -4.996525,1.086201 -28.023985,6.734446 -24.765382,7.168927 3.258603,0.43448 32.151548,-4.779284 27.372264,-4.127564 -4.779284,0.651721 -26.720544,8.472368 -24.113661,8.255127 2.606882,-0.21724 27.806744,-8.472367 25.634342,-5.865485 -2.172402,2.606883 -31.065347,9.341329 -25.417102,10.210289 5.648245,0.868961 31.065347,-10.644769 26.937784,-6.951686 -4.127564,3.693083 -31.717068,10.86201 -26.286064,10.64477 5.431005,-0.217241 30.848108,-11.948211 26.068823,-6.082726 -4.779284,5.865485 -29.327425,5.431005 -24.765381,8.472368 4.562044,3.041362 29.979146,-9.993049 26.720543,-5.865485 -3.258603,4.127563 -28.892945,10.427529 -26.068823,10.644769 2.824123,0.21724 26.937784,-9.341328 24.765382,-6.734446 -2.172402,2.606882 -26.503303,8.689608 -23.896421,9.341328 2.606882,0.651721 25.362792,-8.363747 24.656762,-6.843066 -0.706031,1.520681 -22.973151,10.210289 -22.53867,10.373219 0.43448,0.16293 22.75591,-4.996524 21.126609,-4.290493 -1.629302,0.70603 -24.005042,5.648245 -21.452469,7.005996 2.552572,1.357751 21.072298,-6.137036 19.442997,-4.018944 -1.629302,2.118092 -21.452469,6.462896 -17.324906,6.897376 4.127564,0.434481 18.899897,-4.887904 16.455945,-2.878432 -2.443952,2.009472 -18.899897,5.268074 -16.836115,5.322384 2.063782,0.05431 20.746438,-4.127563 16.727495,-2.009471 -4.018944,2.118092 -18.302486,1.412061 -13.143032,4.236184 5.159455,2.82412 10.155979,0.32586 10.155979,0.32586"
            id="path3009"
            style="fill:none;stroke:#000000;stroke-width:1px;stroke-linecap:butt;stroke-linejoin:miter;stroke-opacity:1" />
        <path
            d="m 85.266776,23.879121 c 0,0 5.268074,-3.747394 4.236183,-2.498262 -1.031891,1.249131 -9.775808,5.919795 -3.367223,4.290493 6.408586,-1.629301 13.631823,-6.245655 10.75339,-4.290493 -2.878433,1.955161 -14.609403,9.395638 -9.449948,8.363747 5.159454,-1.031891 19.768862,-13.849062 14.663712,-8.146507 -5.105144,5.702555 -23.40763,15.478363 -11.56804,11.3508 11.83959,-4.127564 21.50678,-14.935263 19.55162,-11.948211 -1.95516,2.987053 -18.736969,15.804224 -18.030938,15.749914 0.70603,-0.05431 26.068818,-17.759386 23.950728,-15.369743 -2.11809,2.389642 -24.602449,18.030936 -23.299008,17.542145 1.303441,-0.48879 27.426578,-17.922316 24.167968,-13.686132 -3.2586,4.236184 -25.634339,16.944735 -24.113658,16.727495 1.520682,-0.21724 24.276588,-11.29649 24.167968,-11.02494 -0.10862,0.27155 -25.525719,13.088722 -22.810216,13.849062 2.715502,0.760341 27.372266,-16.238704 25.851586,-12.599931 -1.52068,3.638773 -26.177447,15.858534 -23.950735,15.912844 2.226712,0.05431 26.720545,-13.849062 26.068825,-11.62235 -0.65172,2.226712 -28.023987,13.740442 -24.276593,15.641294 3.747393,1.900852 29.110183,-15.749914 26.286063,-12.382691 -2.82412,3.367223 -25.308482,16.347324 -24.439522,16.727495 0.868962,0.38017 26.557612,-12.219761 25.634342,-11.513731 -0.92327,0.706031 -27.372263,12.762862 -24.76538,14.229233 2.60688,1.466371 26.44899,-12.654241 25.79727,-10.8077 -0.65172,1.846542 -26.17744,15.967155 -23.46194,16.781805 2.7155,0.814651 25.9602,-16.347324 24.22228,-12.980101 -1.73792,3.367223 -25.79727,15.858534 -22.32143,16.021464 3.47585,0.16293 25.30849,-14.826643 24.65676,-12.274071 -0.65172,2.552572 -24.43952,13.468892 -22.91884,15.043884 1.52069,1.574991 24.33091,-13.523202 23.7335,-11.07925 -0.59741,2.443952 -28.34985,14.229232 -21.72402,14.609403 6.62582,0.38017 25.25417,-14.663713 23.67918,-12.002521 -1.57499,2.661192 -30.52225,14.989573 -23.08177,15.749914 7.44047,0.760341 26.06882,-15.858534 24.3309,-12.925791 -1.73792,2.932742 -26.34037,14.772333 -23.02746,16.673184 3.31291,1.900852 25.19986,-14.880953 24.27659,-12.05683 -0.92327,2.824122 -26.17744,11.62235 -23.19039,14.772333 2.98705,3.149983 26.17744,-15.043884 24.60245,-11.785281 -1.57499,3.258603 -25.4171,14.555093 -22.86453,16.347325 2.55257,1.792231 24.98262,-14.718023 24.05935,-12.056831 -0.92327,2.661192 -13.30596,11.67666 -17.97662,14.066303 -4.67067,2.389642 -7.33186,4.507734 -3.2043,3.747393 4.12757,-0.76034 22.10419,-15.695604 21.34385,-12.708551 -0.3158,1.240631 -6.28894,5.090189 -6.49002,6.636425 -0.24939,1.917556 -18.73234,8.841169 -15.20023,8.403369 2.72983,-0.338359 15.77534,-1.866107 15.22735,-1.733832 -7.87494,1.900871 -15.58698,3.312912 -13.74044,4.724975 1.84655,1.41206 14.60941,-3.801705 12.98011,-2.226713 -1.62931,1.574991 -14.17493,4.018943 -12.9258,4.507733 1.24914,0.48879 9.55857,0.59741 9.55857,0.59741"
            id="path3011"
            style="fill:none;stroke:#000000;stroke-width:1px;stroke-linecap:butt;stroke-linejoin:miter;stroke-opacity:1" />
    </g>
    <g
        id="e_letter">
        <path
            d="m 252.86758,86.172746 c -11.80576,18.316274 -23.2886,21.239774 -35.63784,20.348134 -9.46705,-0.68353 -20.56291,-1.99693 -25.94556,-10.068201 -12.15412,-18.225069 -8.98941,-51.298074 28.12224,-47.689548 0.81925,0.01779 1.73995,-0.0072 2.7271,-0.05116 1.86826,-0.0832 3.75731,-0.234379 5.86433,-0.29222 2.83795,-0.07791 5.89448,0.01351 8.15531,0.668416 8.0508,2.33211 13.41343,9.292441 19.32131,22.746722 1.51643,3.453444 -20.47251,-0.269769 -26.66938,1.047311 0.79491,-0.135967 -4.35745,-26.250713 -9.39867,-24.119073 -2.21699,0.937438 -8.79313,7.95103 -7.4273,24.002733 1.42366,16.731339 7.37423,24.906423 13.05537,27.4771 12.71881,5.75517 29.3168,-14.400638 27.83309,-14.070214 z"
            id="path3056"
            style="fill:none;stroke:#000000;stroke-width:1px;stroke-linecap:butt;stroke-linejoin:miter;stroke-opacity:1" />
        <path
            d="m 229.06348,72.831785 -17.08436,-0.06593"
            id="path3058"
            style="fill:none;stroke:#000000;stroke-width:1px;stroke-linecap:butt;stroke-linejoin:miter;stroke-opacity:1" />
        <path
            d="m 189.17319,61.438109 21.19846,-10.829647 c 0,0 2.91863,-2.688211 1.92015,-0.460836 -0.99848,2.227374 -26.8821,15.053977 -22.81138,14.977171 4.07072,-0.07681 30.18476,-19.124696 20.73762,-10.138393 -9.44714,8.986303 -27.41974,13.978693 -23.57944,16.129261 3.8403,2.150569 25.11556,-18.126217 24.3475,-14.669947 -0.76806,3.45627 -32.79616,20.430398 -22.58097,18.203024 10.2152,-2.227375 21.42888,-17.12774 21.58249,-13.901888 0.15361,3.225853 -25.88362,15.59162 -21.58249,16.897322 4.30114,1.305702 24.50112,-19.355114 20.4304,-11.981737 -4.07072,7.373377 -26.80529,15.745231 -20.04637,15.591619 6.75893,-0.153612 26.19085,-16.206067 20.12318,-7.6806 -6.06768,8.525466 -29.87754,10.368811 -18.89428,10.522423 10.98326,0.153612 24.11709,-15.130784 18.89428,-5.914063 -5.22281,9.216721 -24.80834,6.758929 -19.1247,8.755885 5.68365,1.996956 24.65473,-8.909497 21.50568,-5.069197 -3.14904,3.840301 -24.42431,6.605317 -19.89275,8.218243 4.53155,1.612926 22.35055,-8.218243 20.5072,-5.606838 -1.84334,2.611404 -23.50264,6.91254 -19.12469,7.987824 4.37794,1.075284 21.35207,-10.522423 19.2015,-5.453226 -2.15057,5.069196 -21.81291,7.29657 -16.12926,7.987824 5.68364,0.691255 17.9726,-8.755884 17.05093,-5.990868 -0.92167,2.765016 -19.04789,9.600751 -14.59314,9.216721 4.45475,-0.38403 16.74371,-10.445617 14.90036,-6.835735 -1.84334,3.609882 -18.66386,8.986299 -12.51937,8.371855 6.14448,-0.614448 17.28135,-11.597707 13.74827,-6.682123 -3.53308,4.915585 -18.97108,10.599227 -10.90645,8.525467 8.06463,-2.073762 15.51481,-11.444095 12.74979,-7.373377 -2.76501,4.070719 -14.1323,8.218247 -8.21824,8.141437 5.91406,-0.0768 9.60075,-9.293527 9.52395,-6.758928 -0.0768,2.534598 -9.83117,11.136868 -4.99239,8.832688 4.83877,-2.30418 5.68364,-9.754361 5.83725,-6.989344 0.15362,2.765014 -5.53003,8.909494 -1.99695,6.682124 3.53307,-2.22738 5.06919,-8.832693 4.68516,-4.992392 -0.38403,3.840302 -2.38098,7.757402 0.38403,5.530032 2.76502,-2.22737 5.04833,-7.927743 4.63633,-4.00227 -0.412,3.92546 -2.17853,3.84866 -2.17853,3.84866"
            id="path3060"
            style="fill:none;stroke:#000000;stroke-width:1px;stroke-linecap:butt;stroke-linejoin:miter;stroke-opacity:1" />
        <path
            d="m 223.65909,50.992492 c 4.91559,-1.536121 7.6038,-4.685167 4.68517,-1.689733 -2.91863,2.995435 -11.13687,5.069197 -3.07224,2.918629 8.06463,-2.150568 13.51785,-5.990869 7.98782,-1.996956 -5.53003,3.993912 -14.36272,6.067674 -5.22281,3.993912 9.13992,-2.073762 19.1247,-5.530033 9.37034,-1.689732 -9.75437,3.8403 -13.82508,5.146002 -8.98631,5.069196 4.83878,-0.07681 15.13079,-7.142958 12.98022,-3.8403 -2.15057,3.302658 -14.13231,4.147524 -12.36577,5.37642 1.76654,1.228896 14.59314,-5.453226 13.82508,-3.686688 -0.76806,1.766538 -16.20606,5.990869 -14.20911,6.221287 1.99696,0.230418 17.28135,-6.067675 15.89885,-3.763495 -1.38251,2.30418 -15.05398,5.299615 -13.44106,6.298093 1.61293,0.998478 17.28136,-6.144481 16.12927,-4.301137 -1.15209,1.843345 -18.97109,6.298093 -15.89885,7.142959 3.07224,0.844866 17.66538,-5.914062 16.35968,-4.070718 -1.3057,1.843344 -20.35359,6.14448 -15.82204,6.835734 4.53156,0.691254 19.50873,-6.758928 17.66539,-4.454748 -1.84335,2.30418 -15.89885,5.606838 -13.74828,5.914062 2.15057,0.307224 17.97261,-7.603794 15.2844,-4.147524 -1.13875,1.464107 -8.7233,3.236793 -9.31429,3.876521 -0.80413,0.870458 3.8438,0.127778 5.34899,-0.18211 2.61141,-0.537644 6.42309,-3.233571 6.34628,-1.236615 -0.0768,1.996956 -1.22889,1.92015 -1.22889,1.92015"
            id="path3062"
            style="fill:none;stroke:#000000;stroke-width:1px;stroke-linecap:butt;stroke-linejoin:miter;stroke-opacity:1" />
    </g>
    <g
        id="a_letter">
        <path
            d="m 335.79586,100.45556 c -7.28272,8.81356 -7.32617,-23.798908 -6.60531,-40.553571 l -6.68073,-6.588845 -7.55361,-3.862753 -15.5664,-0.915692 c 0,0 -18.74066,-1.382508 -24.88514,3.072241 -6.14448,4.454748 -12.44258,11.060065 -4.30114,15.822037 8.14144,4.761973 18.58706,0.76806 21.35207,-1.843344 2.76502,-2.611404 -0.61445,-9.831169 -1.38251,-10.292005 -0.76806,-0.460836 -5.37642,-5.37642 -0.46083,-5.990868 4.91558,-0.614449 12.59618,1.689731 12.44257,7.219764 -0.15362,5.530032 -0.46084,15.668426 -0.46084,15.668426 0,0 1.09508,24.660571 1.53613,25.653206 0.15275,10.398404 33.08132,10.139644 32.56574,2.611404 z"
            id="path3394"
            style="fill:none;stroke:#000000;stroke-width:1px;stroke-linecap:butt;stroke-linejoin:miter;stroke-opacity:1" />
        <path
            d="m 335.80179,100.61232 c 0,0 5.5241,-1.69288 5.06326,-16.132409"
            id="path3396"
            style="fill:none;stroke:#000000;stroke-width:1px;stroke-linecap:butt;stroke-linejoin:miter;stroke-opacity:1" />
        <path
            d="m 301.69906,72.023551 -10.14346,2.625191 -18.89428,0.307224 c -3.98495,-1.403866 -22.38775,16.741863 -0.61444,30.722404 10.1726,6.53178 30.79735,-8.054091 31.1873,-7.694114"
            id="path3398"
            style="fill:none;stroke:#000000;stroke-width:1px;stroke-linecap:butt;stroke-linejoin:miter;stroke-opacity:1" />
        <path
            d="m 301.69906,72.023552 c -3.94861,3.260218 -7.49047,3.384598 -9.31477,6.374954 -7.46467,12.235954 1.73602,24.090674 10.62953,19.645625"
            id="path3400"
            style="fill:none;stroke:#000000;stroke-width:1px;stroke-linecap:butt;stroke-linejoin:miter;stroke-opacity:1" />
        <path
            d="m 268.29164,59.072032 c 0,0 12.9801,-10.536149 12.54562,-8.580988 -0.43448,1.955162 -14.77233,9.287019 -12.92579,10.53615 1.84654,1.249131 18.35679,-12.274071 17.3249,-9.775809 -1.03189,2.498262 -18.03093,11.13356 -15.36974,12.165451 2.66119,1.031891 17.65077,-11.45942 16.61887,-9.504259 -1.03189,1.955162 -16.67318,11.839591 -14.0663,12.002521 2.60688,0.16293 15.69561,-12.328381 15.42406,-9.830119 -0.27155,2.498263 -12.65425,10.8077 -10.97063,11.3508 1.68361,0.543101 12.76286,-12.491311 12.00252,-7.983577 -0.76034,4.507734 -11.73097,8.418058 -8.14651,7.929267 3.58446,-0.48879 9.93874,-7.983577 9.83012,-6.843066 -0.10862,1.140511 -6.02842,7.331857 -6.02842,7.331857"
            id="path3402"
            style="fill:none;stroke:#000000;stroke-width:1px;stroke-linecap:butt;stroke-linejoin:miter;stroke-opacity:1" />
        <path
            d="m 300.00871,51.088455 c 3.20429,-0.760341 6.40858,-3.095673 4.8879,-0.27155 -1.52068,2.824122 -3.63877,4.724974 -1.6293,3.693083 2.00947,-1.031891 9.99305,-5.919795 6.84307,-3.801703 -3.14999,2.118091 -9.88443,6.680135 -6.24566,6.245655 3.63877,-0.43448 11.51373,-7.820647 10.97063,-5.974105 -0.5431,1.846541 -13.46889,7.440476 -10.64477,7.549097 2.82412,0.10862 15.04388,-7.223237 13.19734,-5.431005 -1.84654,1.792231 -16.72749,6.462895 -12.00252,7.114616 4.72498,0.651721 15.96716,-7.929267 14.33785,-6.082725 -1.6293,1.846541 -17.54214,7.386166 -13.41458,8.146507 4.12757,0.760341 17.75939,-8.906848 15.69561,-6.680136 -2.06379,2.226712 -18.84559,7.766337 -16.94474,8.961158 1.90085,1.194821 18.24818,-8.037887 17.86801,-7.223237 -0.38017,0.814651 -23.13608,8.961158 -17.43353,9.775809 5.70256,0.814651 19.9861,-9.341328 19.55162,-8.635298 -0.43448,0.706031 -23.51625,11.02494 -19.60593,11.622351 3.91032,0.59741 22.53867,-12.165451 20.58351,-9.287018 -1.95516,2.878432 -25.14555,11.024939 -21.23523,11.94821 3.91032,0.923271 21.83264,-11.67666 21.77833,-10.047359 -0.0543,1.629302 -23.40763,12.056831 -21.94126,12.925792 1.46637,0.86896 22.32143,-11.893901 21.77833,-10.264599 -0.5431,1.629301 -23.02746,12.925791 -20.5292,12.817171 2.49826,-0.10862 20.63782,-12.274071 19.93179,-9.667189 -0.70603,2.606883 -22.97315,11.24218 -20.31196,11.676661 2.66119,0.43448 21.34385,-12.328381 20.69213,-9.993049 -0.65172,2.335332 -23.40763,12.599931 -21.6154,12.654241 1.79223,0.05431 23.19039,-11.67666 22.59298,-10.155979 -0.59741,1.520681 -23.57056,11.62235 -21.56109,12.328381 2.00947,0.706031 21.66971,-9.938739 21.28954,-8.798228 -0.38017,1.140511 -22.43005,11.622351 -21.39816,12.762862 1.03189,1.140511 20.31196,-11.29649 20.42058,-9.504259 0.10862,1.792232 -21.01799,9.612879 -19.11714,10.97063 1.90085,1.357751 20.5292,-10.155979 20.20334,-8.580988 -0.32586,1.574992 -22.97315,11.676661 -21.18092,12.708552 1.79223,1.03189 22.10419,-13.143032 21.0723,-10.101669 -1.03189,3.041362 -23.2447,11.40511 -19.71455,12.491311 3.53016,1.086201 19.9861,-11.02494 19.71455,-9.069778 -0.27155,1.955161 -19.22576,12.708552 -15.74991,12.654242 3.47584,-0.0543 16.7818,-9.83012 16.51025,-9.44995 -0.27155,0.380171 -17.86801,12.16545 -13.36027,12.32838 4.50773,0.16293 15.09819,-13.577511 13.79475,-9.830117 -1.30344,3.747393 -12.65424,8.689607 -9.55857,9.667187 3.09568,0.97758 12.00252,-8.526676 10.91632,-6.299964 -1.0862,2.226712 -7.65771,7.386164 -5.37669,7.060304 2.28102,-0.32586 5.48531,-6.191344 5.75686,-4.181872 0.27155,2.009472 -4.56204,4.779282 -3.42153,4.724972 1.14051,-0.0543 4.77928,-2.49826 4.77928,-2.49826"
            id="path3404"
            style="fill:none;stroke:#000000;stroke-width:1px;stroke-linecap:butt;stroke-linejoin:miter;stroke-opacity:1" />
        <path
            d="m 264.27269,85.140855 c 3.80171,-2.335332 14.012,-10.155979 13.63183,-8.146507 -0.38017,2.009472 -14.50079,9.124088 -13.25166,9.612878 1.24914,0.488791 18.3568,-11.56804 17.97663,-9.938738 -0.38017,1.629301 -21.28954,12.27407 -19.93179,12.871481 1.35775,0.597411 22.59298,-14.989573 22.43005,-13.197342 -0.16293,1.792232 -23.7878,14.011993 -22.21281,15.043884 1.57499,1.031891 26.66624,-17.487836 26.72055,-15.641294 0.0543,1.846541 -29.00157,17.161975 -26.34038,18.519726 2.6612,1.357751 27.89476,-19.188331 28.13261,-16.890425 0.23785,2.297906 -28.45847,17.053355 -26.72055,18.465417 1.73793,1.412061 25.70093,-17.20292 25.47142,-14.283543 -0.22951,2.919376 -27.48089,14.772333 -24.98262,16.021464 2.49826,1.249131 24.38521,-13.903372 23.67918,-11.8939 -0.70603,2.009471 -26.66624,13.686132 -22.53867,14.066302 4.12756,0.380172 22.64729,-13.143032 22.10419,-10.155979 -0.5431,2.987053 -23.40763,9.395638 -19.28007,11.568041 4.12756,2.1724 20.36627,-12.274072 19.82317,-9.667189 -0.5431,2.606882 -22.32143,11.785279 -18.19387,12.165449 4.12756,0.38017 19.33438,-13.36027 18.57404,-10.644768 -0.76034,2.715503 -17.86801,11.839588 -15.42406,12.056828 2.44396,0.21724 17.86801,-12.599928 16.67319,-10.101666 -1.19482,2.498262 -17.65077,10.916316 -14.33785,10.862006 3.31291,-0.0543 16.99904,-11.948207 15.53267,-9.232705 -1.46637,2.715503 -16.45595,11.730975 -12.11114,10.155975 4.3448,-1.57499 14.17492,-10.318905 13.63182,-8.580983 -0.5431,1.737921 -11.92437,7.149373 -7.38617,6.734443 4.53821,-0.41492 10.15598,-8.852535 8.47237,-5.919793 -1.68361,2.932743 -4.96814,6.093743 -1.97661,4.657403 2.99153,-1.43635 4.14901,-4.277232 4.14901,-4.277232"
            id="path3406"
            style="fill:none;stroke:#000000;stroke-width:1px;stroke-linecap:butt;stroke-linejoin:miter;stroke-opacity:1" />
    </g>
    <g
        id="s_letter">
        <path
            d="m 348.54566,79.257102 0,26.728488"
            id="path3423"
            style="fill:none;stroke:#000000;stroke-width:1px;stroke-linecap:butt;stroke-linejoin:miter;stroke-opacity:1" />
        <path
            d="m 348.54566,90.51755 c 0,0 24.67299,20.5292 39.98842,15.20681 15.31544,-5.32238 14.22924,-11.187867 16.7275,-20.529195 2.49826,-9.341328 -36.27911,-27.698124 -36.27911,-27.698124 -0.54989,-2.758212 -3.60455,-11.262114 17.27059,-8.798229 10.18303,0.38739 -14.41221,-3.477498 -19.87748,-1.955161 0,0 -15.31543,7.494787 -17.16197,12.599931 -1.84654,5.105145 0.43448,12.708552 3.47584,15.098194 3.04137,2.389642 21.0723,10.427529 27.48089,16.401634 6.40858,5.974106 10.10167,0.977581 9.34133,14.33785"
            id="path3425"
            style="fill:none;stroke:#000000;stroke-width:1px;stroke-linecap:butt;stroke-linejoin:miter;stroke-opacity:1" />
        <path
            d="m 388.62185,48.642217 12.6751,8.854823"
            id="path3427"
            style="fill:none;stroke:#000000;stroke-width:1px;stroke-linecap:butt;stroke-linejoin:miter;stroke-opacity:1" />
        <path
            d="m 401.35126,45.76607 -0.10862,23.461941"
            id="path3429"
            style="fill:none;stroke:#000000;stroke-width:1px;stroke-linecap:butt;stroke-linejoin:miter;stroke-opacity:1" />
        <path
            d="m 351.38601,59.343582 c 0,0 16.99905,-13.849062 16.83612,-11.94821 -0.16293,1.900851 -19.93179,14.609403 -17.59646,15.098193 2.33533,0.48879 18.68266,-13.088722 17.21629,-11.24218 -1.46637,1.846542 -18.30249,12.437001 -16.34733,13.468892 1.95516,1.031891 16.40164,-11.07925 15.80423,-9.775809 -0.59741,1.303441 -18.57404,12.925792 -16.1844,13.197342 2.38964,0.27155 17.21629,-11.62235 17.10767,-9.558568 -0.10862,2.063781 -20.74644,11.78528 -16.67319,12.21976 4.07326,0.434481 19.71455,-13.143031 19.82317,-11.18787 0.10862,1.955162 -24.49383,12.219761 -17.97663,12.980102 6.51721,0.760341 18.84559,-14.609403 19.49731,-12.111141 0.65172,2.498262 -21.18092,13.849063 -16.99904,14.392163 4.18187,0.5431 20.36626,-16.999045 19.4973,-13.034412 -0.86896,3.964634 -23.29901,15.695604 -15.36974,14.283543 7.92927,-1.412061 17.05335,-14.229233 17.3249,-12.980101 0.27156,1.249131 -18.84558,15.098193 -14.12061,15.043883 4.72498,-0.05431 15.74992,-15.315434 15.96716,-14.229233 0.21724,1.086201 -12.87148,14.500783 -12.21976,15.043884 0.65172,0.5431 15.26112,-16.347325 15.31543,-13.360272 0.0543,2.987052 -16.89043,16.238704 -13.95768,16.293014 2.93274,0.05431 16.83611,-19.551617 16.61887,-14.555093 -0.21724,4.996525 -18.57403,15.315434 -13.74044,15.261124 4.83359,-0.05431 14.93526,-17.976626 15.31543,-14.283543 0.38017,3.693084 -15.74991,15.858534 -12.59993,15.749914 3.14998,-0.10862 15.42406,-19.388687 15.31544,-14.174922 -0.10862,5.213764 -18.84559,15.532673 -14.012,15.641294 4.8336,0.10862 17.65077,-17.705076 16.7275,-14.174923 -0.92327,3.530153 -16.99905,15.695604 -13.19734,15.261123 3.8017,-0.43448 17.21628,-18.030936 15.1525,-13.523202 -2.06378,4.507734 -14.93526,16.184395 -12.70855,15.586984 2.22671,-0.59741 15.20681,-18.030936 14.66371,-13.957682 -0.5431,4.073254 -14.33785,14.229233 -12.16545,14.826643 2.1724,0.597411 14.6094,-15.695604 14.50078,-13.088722 -0.10862,2.606883 -15.91284,13.686133 -12.59993,14.663713 3.31292,0.977581 15.20682,-15.206813 14.22923,-13.088721 -0.97758,2.118092 -15.26112,14.337853 -12.27407,15.369743 2.98706,1.031891 14.28355,-15.315433 13.90338,-13.686132 -0.38017,1.629302 -14.71803,15.804224 -12.00252,15.749914 2.7155,-0.05431 16.17896,-17.04123 14.9597,-14.196015 -1.21926,2.845215 -15.17694,15.662387 -13.81919,16.259797 1.35775,0.597411 14.6094,-15.858534 13.25165,-11.94821 -1.35775,3.910323 -15.80423,13.034411 -12.54562,13.903372 3.2586,0.868962 13.57751,-13.523202 11.40511,-9.232708 -2.1724,4.290494 -12.81717,10.53615 -11.13356,11.18787 1.68361,0.65172 9.78226,-8.947411 9.34133,-5.865486 -0.44093,3.081926 -10.10167,7.820646 -10.10167,7.820646"
            id="path3431"
            style="fill:none;stroke:#000000;stroke-width:1px;stroke-linecap:butt;stroke-linejoin:miter;stroke-opacity:1" />
    </g>
    <g
        id="y_letter">
        <path
            d="m 412.29464,46.384131 43.93304,0.921672"
            id="path3523"
            style="fill:none;stroke:#000000;stroke-width:1px;stroke-linecap:butt;stroke-linejoin:miter;stroke-opacity:1" />
        <path
            d="M 486.79647,47.920251 464.67634,47.766639"
            id="path3525"
            style="fill:none;stroke:#000000;stroke-width:1px;stroke-linecap:butt;stroke-linejoin:miter;stroke-opacity:1" />
        <path
            d="m 418.9035,46.522778 30.25803,62.074222 0,0"
            id="path3527"
            style="fill:none;stroke:#000000;stroke-width:1px;stroke-linecap:butt;stroke-linejoin:miter;stroke-opacity:1" />
        <path
            d="M 447.95239,47.132195 462.833,79.564326"
            id="path3529"
            style="fill:none;stroke:#000000;stroke-width:1px;stroke-linecap:butt;stroke-linejoin:miter;stroke-opacity:1" />
        <path
            d="m 428.73113,130.56351 c 6.16845,-5.78545 11.95187,-20.92099 -4.14753,-22.88819 -11.22225,-1.98547 -13.90339,7.73804 -14.90036,12.28897 1.76494,8.55404 8.68868,11.45795 19.04789,10.59922 26.93218,-12.1009 32.87325,-55.136041 49.30988,-82.704061"
            id="path3531"
            style="fill:none;stroke:#000000;stroke-width:1px;stroke-linecap:butt;stroke-linejoin:miter;stroke-opacity:1" />
        <path
            d="m 411.99603,117.88981 c 0,-0.27155 9.01546,-9.39563 9.01546,-9.39563 0,0 -11.24218,11.18787 -8.47236,11.56804 2.76981,0.38017 11.18787,-13.57752 11.02494,-10.59046 -0.16293,2.98705 -13.08873,11.24218 -10.8077,12.437 2.28102,1.19482 14.50078,-14.93527 13.84906,-11.62235 -0.65172,3.31291 -14.6094,11.94821 -12.81717,12.9801 1.79223,1.03189 13.90337,-14.12061 14.50078,-12.05683 0.59741,2.06378 -14.98957,12.70855 -13.36027,13.84906 1.6293,1.14051 15.04388,-15.42405 15.04388,-11.94821 0,3.47584 -17.3249,13.74044 -13.79475,13.95768 3.53015,0.21724 16.07577,-17.43352 16.13008,-14.12061 0.0543,3.31291 -17.59645,14.39216 -15.04388,15.26112 2.55257,0.86896 16.94474,-17.10766 16.51025,-13.08872 -0.43448,4.01895 -15.6956,12.437 -12.70855,13.41458 2.98706,0.97758 12.437,-13.14303 12.49131,-10.42753 0.0543,2.71551 -13.63182,12.54563 -9.44994,11.40511 4.18187,-1.14051 11.07925,-11.73097 9.72149,-8.52667 -1.35775,3.20429 -6.29996,8.79822 -6.29996,8.79822"
            id="path3533"
            style="fill:none;stroke:#000000;stroke-width:1px;stroke-linecap:butt;stroke-linejoin:miter;stroke-opacity:1" />
        <path
            d="m 421.18273,51.198604 c 2.30418,-1.766539 6.16589,-4.660861 5.78186,-2.894323 -0.38403,1.766539 -5.146,2.918629 -3.37946,3.840301 1.76654,0.921672 9.67755,-6.758929 9.13991,-4.070719 -0.53764,2.688211 -12.13535,4.377943 -8.60227,5.606839 3.53308,1.228896 13.74827,-8.218243 13.44105,-5.683645 -0.30722,2.534599 -15.51481,7.373377 -11.82812,7.526989 3.68668,0.153612 18.92502,-11.296821 17.52714,-8.490233 -1.39788,2.806589 -19.60091,8.413427 -16.9895,9.719129 2.6114,1.305702 19.91818,-12.809957 19.36783,-9.669234 -0.55036,3.140724 -21.59521,11.051742 -18.907,11.819802 2.68821,0.76806 20.27679,-11.444095 20.50721,-9.293526 0.23042,2.150568 -22.12013,10.138392 -19.2015,11.060064 2.91862,0.921673 21.35207,-12.135349 20.5072,-9.370332 -0.84487,2.765016 -24.34751,10.906453 -20.27679,11.444095 4.07072,0.537642 22.58097,-12.596185 21.6593,-9.293527 -0.92167,3.302658 -23.11861,8.909497 -19.89276,10.368811 3.22585,1.459314 21.6593,-11.213677 20.35359,-8.755885 -1.3057,2.457792 -27.65016,9.677557 -19.96956,10.983259 7.6806,1.305702 21.19846,-11.444095 20.4304,-8.602273 -0.76806,2.841822 -24.3475,10.599229 -19.04789,10.906453 5.29961,0.307224 22.50416,-12.596185 20.27679,-9.063109 -2.22738,3.533077 -24.2707,10.599229 -18.81748,11.136871 5.45323,0.537642 22.35055,-12.288961 19.66234,-8.44866 -2.68821,3.8403 -22.58096,9.677556 -18.81747,11.136871 3.76349,1.459314 21.65929,-10.445617 19.27831,-7.603795 -2.38099,2.841822 -21.27527,7.987825 -18.04941,9.370333 3.22585,1.382508 21.8129,-10.906453 19.2783,-7.680601 -2.53459,3.225852 -24.19389,9.139915 -18.74066,10.292005 5.45322,1.15209 21.7361,-12.288961 19.81595,-8.448661 -1.92015,3.840301 -21.6593,9.216721 -18.12622,10.292005 3.53308,1.075284 21.04485,-11.674513 19.43192,-8.679079 -1.61293,2.995435 -20.81443,9.754363 -17.12774,10.906453 3.68669,1.15209 18.66386,-12.365767 18.20302,-9.370333 -0.46083,2.995435 -23.50263,11.367289 -18.58705,12.212156 4.91558,0.844866 20.04637,-14.82356 19.27831,-10.368811 -0.76806,4.454748 -25.19237,13.057021 -18.81747,12.442573 6.37489,-0.614448 22.58096,-14.593142 19.81595,-10.138393 -2.76502,4.454748 -23.80987,11.520901 -19.20151,12.672991 4.60836,1.15209 23.65625,-16.282873 20.50721,-10.906453 -3.14905,5.37642 -23.73306,12.519379 -18.58706,13.517857 5.14601,0.998478 23.41351,-15.6953 20.34743,-12.07198 -3.06607,3.623319 -25.1094,15.297832 -18.81131,14.76019 6.2981,-0.537642 16.97413,-13.287439 16.05246,-9.447138 -0.92167,3.8403 -24.10368,13.505538 -16.50659,12.244398 7.59709,-1.261139 12.05184,-6.944783 12.05184,-6.944783 0,0 6.45171,-8.218244 3.60988,-2.380987 -2.84182,5.837256 -22.68843,16.064931 -12.44257,11.981737 10.24586,-4.083196 13.28744,-9.139915 7.52699,-2.534598 -5.76045,6.605312 -10.10494,6.231782 -5.68364,6.528512 4.42129,0.29672 5.91486,-2.69759 5.91486,-2.69759"
            id="path3535"
            style="fill:none;stroke:#000000;stroke-width:1px;stroke-linecap:butt;stroke-linejoin:miter;stroke-opacity:1" />
    </g>
    <g
        id="w_letter2">
        <path
            d="m 490.17593,48.073863 43.93304,0.153612"
            id="path3546"
            style="fill:none;stroke:#000000;stroke-width:1px;stroke-linecap:butt;stroke-linejoin:miter;stroke-opacity:1" />
        <path
            d="m 537.94927,48.227475 39.93912,0.460836"
            id="path3548"
            style="fill:none;stroke:#000000;stroke-width:1px;stroke-linecap:butt;stroke-linejoin:miter;stroke-opacity:1" />
        <path
            d="m 583.72565,48.381087 25.03876,0"
            id="path3550"
            style="fill:none;stroke:#000000;stroke-width:1px;stroke-linecap:butt;stroke-linejoin:miter;stroke-opacity:1" />
        <path
            d="m 499.08317,48.105007 23.65851,57.726973 8.44866,-0.46084 17.05094,-40.707179 16.43648,41.168019 9.83117,-0.46084 24.88515,-56.990053"
            id="path3552"
            style="fill:none;stroke:#000000;stroke-width:1px;stroke-linecap:butt;stroke-linejoin:miter;stroke-opacity:1" />
        <path
            d="m 526.88715,48.202224 13.41117,35.424659"
            id="path3554"
            style="fill:none;stroke:#000000;stroke-width:1px;stroke-linecap:butt;stroke-linejoin:miter;stroke-opacity:1" />
        <path
            d="m 541.32474,48.266423 7.39242,17.589472"
            id="path3556"
            style="fill:none;stroke:#000000;stroke-width:1px;stroke-linecap:butt;stroke-linejoin:miter;stroke-opacity:1" />
        <path
            d="m 500.67991,52.001073 c 0,0 7.988,-6.235003 6.03284,-2.541919 -1.95516,3.693083 -10.43878,6.10336 -4.62198,5.984422 5.8168,-0.118937 16.90284,-12.922615 13.4236,-7.281117 -3.47924,5.641498 -18.14295,10.420783 -11.19126,9.769062 6.95168,-0.651721 18.90732,-15.048238 16.40534,-9.750831 -2.50197,5.297407 -16.62258,12.249093 -14.12432,12.900814 2.49826,0.65172 19.33438,-15.315434 17.92232,-10.97063 -1.41207,4.344804 -22.73423,16.322407 -18.42742,15.11289 4.3068,-1.209518 22.55498,-16.524951 20.81706,-12.397388 -1.73792,4.127564 -21.39816,13.360272 -17.70508,13.686133 3.69308,0.32586 19.22576,-14.772333 17.92232,-9.884429 -1.30344,4.887904 -21.72402,14.337853 -17.05336,14.337853 4.67067,0 21.18092,-16.836115 18.3568,-11.18787 -2.82412,5.648245 -24.54814,15.206813 -17.05336,13.468892 7.49479,-1.737922 20.5292,-16.618875 18.46542,-11.513731 -2.06378,5.105145 -27.5895,15.206814 -18.13956,13.577512 9.44995,-1.629301 24.89832,-17.039296 21.08446,-11.5067 -3.81386,5.532595 -23.79996,12.375661 -19.34653,13.896343 4.45342,1.520681 21.94125,-13.143032 19.44299,-9.558569 -2.49826,3.584463 -22.04988,12.708551 -17.48783,13.251652 4.56204,0.5431 18.79127,-14.772333 17.81369,-10.318909 -0.97758,4.453424 -22.26712,12.708551 -17.92231,13.143031 4.3448,0.434481 20.85506,-15.641294 18.57403,-10.536149 -2.28102,5.105145 -18.13955,10.427529 -16.94473,11.62235 1.19482,1.194821 1.41206,1.629302 2.49826,1.629302 1.0862,0 16.83612,-16.510255 16.18439,-11.29649 -0.65172,5.213764 -20.74643,14.772333 -16.51025,14.989573 4.23618,0.21724 21.83264,-18.791277 17.70508,-11.62235 -4.12757,7.168926 -19.76886,14.555093 -15.74992,14.446473 4.01895,-0.108621 19.33438,-16.184395 16.51026,-10.97063 -2.82413,5.213764 -22.04988,11.40511 -17.48784,12.491311 4.56205,1.086201 19.76886,-12.708551 17.05336,-8.146507 -2.71551,4.562044 -19.66024,8.906848 -14.44648,10.210289 5.21377,1.303441 16.29302,-9.558569 12.27407,-5.213765 -4.01894,4.344804 -13.90337,6.191346 -11.29649,8.037887 2.60689,1.846542 11.62235,-7.386166 8.58099,-3.258603 -3.04136,4.127565 -10.97063,3.801705 -8.14651,5.105145 2.82413,1.30344 6.84307,-1.52068 6.84307,-1.52068"
            id="path3558"
            style="fill:none;stroke:#000000;stroke-width:1px;stroke-linecap:butt;stroke-linejoin:miter;stroke-opacity:1" />
        <path
            d="m 543.51965,53.488967 c 1.803,-1.421191 5.36519,-10.396524 4.8898,-5.140798 -0.4754,5.255727 -5.39098,10.171311 -2.16513,7.406295 3.22585,-2.765016 8.48022,-13.027117 6.31387,-7.358425 -2.16635,5.668693 -7.69638,11.813173 -3.70247,9.508993 3.99392,-2.30418 10.1384,-13.210633 8.14144,-7.834212 -1.99696,5.37642 -10.90645,11.981737 -5.83726,9.523944 5.0692,-2.457792 11.70387,-17.136854 9.69224,-11.103025 -2.01164,6.033829 -13.22531,15.480968 -10.61391,15.020132 2.61141,-0.460836 15.43801,-18.27983 14.66995,-13.364245 -0.76806,4.915584 -13.97869,15.668425 -13.82508,15.975649 0.15361,0.307224 19.43192,-22.580966 17.43496,-15.668425 -1.99695,6.91254 -24.57792,20.123173 -16.97413,18.356635 7.6038,-1.766538 20.3536,-17.511769 19.20151,-12.749797 -1.15209,4.761972 -23.73306,17.742188 -17.35816,17.665382 6.3749,-0.07681 22.12013,-17.51177 19.04789,-11.904931 -3.07224,5.606838 -21.81291,15.745231 -16.5901,15.361201 5.22281,-0.38403 19.89276,-14.132305 19.50873,-10.215199 -0.38403,3.917106 -22.965,13.287439 -18.12622,14.055499 4.83878,0.76806 21.27526,-16.897321 19.50872,-10.599229 -1.76653,6.298093 -22.12013,12.596185 -17.9726,13.210633 4.14752,0.614449 21.42887,-15.745231 19.12469,-10.138392 -2.30418,5.606838 -25.5764,12.212155 -19.50872,12.442573 6.06767,0.230418 21.12165,-14.977172 20.04637,-10.061587 -1.07529,4.915584 -21.7361,12.980215 -17.66539,13.364245 4.07072,0.38403 17.35816,-13.901887 17.58858,-10.522423 0.23042,3.379464 -21.65929,12.058543 -16.35968,12.596185 5.29962,0.537642 18.97108,-13.748275 18.12622,-10.292005 -0.84487,3.456271 -22.65777,11.904931 -18.58706,13.210633 4.07072,1.305703 20.04637,-15.207589 19.27831,-10.599229 -0.76806,4.608361 -19.66234,13.210634 -16.28287,12.980216 3.37946,-0.230418 16.82051,-10.215199 14.97717,-7.450183 -1.84334,2.765016 -17.12774,10.061587 -14.51633,10.292005 2.6114,0.230418 15.13078,-9.216721 12.51937,-5.606839 -2.6114,3.609883 -15.05397,5.146003 -12.13534,6.912537 2.91862,1.76654 12.59618,-5.683641 10.98325,-3.302654 -1.61292,2.380986 -13.44105,3.686684 -10.44561,4.992394 2.99543,1.3057 8.21824,-1.53612 8.21824,-1.53612"
            id="path3560"
            style="fill:none;stroke:#000000;stroke-width:1px;stroke-linecap:butt;stroke-linejoin:miter;stroke-opacity:1" />
        <path
            d="M 570.28295,48.600556 583.7519,84.203608"
            id="path3562"
            style="fill:none;stroke:#000000;stroke-width:1px;stroke-linecap:butt;stroke-linejoin:miter;stroke-opacity:1" />
    </g>
    <g
        id="i_letter">
        <path
            d="m 611.83665,47.766639 36.71327,0.307224 0,56.682837 8.60227,0 -0.15361,1.22889 -44.24026,-0.30722 0.15361,-0.61445 7.06616,0 0.92167,-56.375609 -8.60227,-0.153612"
            id="path3575"
            style="fill:none;stroke:#000000;stroke-width:1px;stroke-linecap:butt;stroke-linejoin:miter;stroke-opacity:1" />
        <path
            d="m 633.49594,40.854099 c 6.45512,0.294643 14.60422,-1.327575 15.91362,-10.073166 0.7825,-11.895162 -14.50132,-13.203118 -15.52892,-12.689366 -11.60398,-0.01543 -13.40058,9.153604 -13.15313,12.605776 0.51753,5.556217 3.25014,9.428194 12.76843,10.156756 z"
            id="path3577"
            style="fill:none;stroke:#000000;stroke-width:1px;stroke-linecap:butt;stroke-linejoin:miter;stroke-opacity:1" />
        <path
            d="m 622.06729,27.626514 c 0.5431,-0.65172 8.41806,-10.210289 8.20082,-7.712027 -0.21724,2.498262 -10.42753,10.318909 -8.68961,10.155979 1.73792,-0.16293 11.24218,-13.631822 11.51373,-10.427529 0.27155,3.204293 -15.04388,11.73097 -11.3508,12.165451 3.69308,0.43448 12.65424,-14.283543 13.57751,-11.676661 0.92327,2.606883 -15.04388,13.631823 -12.59993,13.849063 2.44395,0.21724 14.22924,-16.944735 15.0982,-14.500783 0.86896,2.443952 -17.65077,14.880953 -14.17493,15.912844 3.47585,1.031891 15.26113,-17.596456 16.07578,-15.315434 0.81465,2.281022 -18.30249,16.510255 -14.33786,16.673185 3.96464,0.16293 15.91285,-19.062827 16.40164,-16.401634 0.48879,2.661192 -16.23871,17.976626 -13.79475,18.030936 2.44395,0.05431 15.85853,-19.931788 15.6956,-16.618875 -0.16293,3.312913 -17.48783,17.705076 -12.81717,17.053355 4.67066,-0.651721 14.71802,-17.976626 14.12061,-15.261124 -0.59741,2.715503 -13.84906,16.618875 -11.62235,15.967155 2.22671,-0.651721 12.81717,-18.193867 12.92579,-15.152504 0.10862,3.041363 -12.9801,16.455945 -9.50426,14.609403 3.47585,-1.846541 12.57577,-15.911174 11.82751,-13.277971 -0.74826,2.633202 -12.15337,16.482264 -8.78614,13.766762 3.36722,-2.715503 9.61002,-9.773866 9.61002,-9.773866"
            id="path3579"
            style="fill:none;stroke:#000000;stroke-width:1px;stroke-linecap:butt;stroke-linejoin:miter;stroke-opacity:1" />
        <path
            d="m 622.61039,53.369477 c 1.0862,-1.629301 6.40859,-7.494787 5.64825,-4.127564 -0.76034,3.367223 -10.27751,8.701522 -5.93797,7.511029 4.33954,-1.190493 13.90189,-11.136871 13.05702,-7.872616 -0.84487,3.264256 -18.81747,11.674513 -13.24904,10.714438 5.56844,-0.960075 20.08478,-12.480976 18.35664,-10.292005 -1.72813,2.188972 -22.42735,11.981737 -17.70378,12.634589 4.72357,0.652851 22.84978,-15.322799 21.42887,-12.711395 -1.42091,2.611405 -27.11252,13.517858 -21.62089,15.053978 5.49163,1.53612 25.26918,-18.203024 24.04028,-14.593142 -1.2289,3.609883 -27.76537,16.782113 -24.07868,17.473367 3.68669,0.691254 25.76841,-18.510248 25.11556,-14.861962 -0.65285,3.648285 -27.93469,17.147057 -25.87091,17.961708 2.06378,0.814651 26.39469,-18.356796 25.63434,-14.772333 -0.76034,3.584463 -30.03345,15.586984 -24.81969,16.455944 5.21377,0.868961 25.68866,-16.293014 24.76538,-13.305961 -0.92327,2.987052 -28.07829,16.510254 -24.81969,16.673184 3.25861,0.162931 25.30848,-15.043883 24.81969,-13.088721 -0.48879,1.955162 -27.10071,15.532674 -24.76538,15.804224 2.33533,0.27155 24.98262,-17.270596 24.54814,-11.948211 -0.43448,5.322385 -30.19638,13.686132 -25.03693,14.446473 5.15946,0.760341 25.85158,-14.446473 25.63434,-12.165451 -0.21724,2.281022 -26.93778,13.794752 -26.12313,14.337853 0.81465,0.5431 26.66624,-13.523202 25.9602,-10.644769 -0.70603,2.878432 -29.27311,11.45942 -26.01451,12.38269 3.2586,0.923271 28.90591,-11.56804 26.97142,-8.798227 -1.93449,2.769812 -31.47915,10.210289 -26.8628,11.07925 4.61636,0.86896 25.68865,-10.48184 25.09124,-7.549097 -0.59741,2.932742 -30.95672,9.178398 -23.73349,10.590459 7.22324,1.412061 24.81969,-11.18787 24.43952,-8.146507 -0.38017,3.041363 -29.00156,8.743918 -25.9602,10.590459 3.04136,1.846542 28.73002,-11.51373 26.28606,-7.874957 -2.44395,3.638774 -31.82568,8.852538 -26.06882,9.938739 5.75687,1.086201 26.12313,-10.699079 25.4171,-7.168926 -0.70603,3.530153 -39.42909,10.264599 -24.16797,10.101669 15.26113,-0.16293 25.63435,-10.97063 24.76538,-8.852538 -0.86896,2.118092 -33.23774,11.948212 -25.85158,12.491312 7.38617,0.5431 28.89295,-13.523203 26.06882,-10.69908 -2.82412,2.824122 -26.72054,13.84906 -23.13608,13.36027 3.58447,-0.48879 25.19987,-14.120611 22.53867,-10.699078 -2.66119,3.421533 -21.07229,10.970628 -17.65076,10.862008 3.42153,-0.10862 19.9861,-11.187868 18.19386,-8.798226 -1.79223,2.389642 -14.66371,9.830116 -11.67666,9.178396 2.98706,-0.65172 13.03442,-9.341326 10.91632,-6.082724 -2.11809,3.258604 -7.76633,8.526674 -3.91032,6.245654 3.85601,-2.28102 4.72497,-3.58446 4.72497,-3.58446"
            id="path3581"
            style="fill:none;stroke:#000000;stroke-width:1px;stroke-linecap:butt;stroke-linejoin:miter;stroke-opacity:1" />
    </g>
    <g
        id="g_letter">
        <path
            d="m 731.44773,46.635031 c -6.48953,-0.05503 -8.05187,2.251089 -8.25513,7.060306 0.10445,7.015872 4.15145,7.391676 8.03789,8.037887 3.33463,-0.09535 8.3669,-1.5776 8.14651,-7.603406 -0.3078,-1.188893 0.37512,-8.032838 -7.92927,-7.494787 z"
            id="path3589"
            style="fill:none;stroke:#000000;stroke-width:1px;stroke-linecap:butt;stroke-linejoin:miter;stroke-opacity:1" />
        <path
            d="m 730.3006,46.651899 c -0.28652,-0.39397 -13.60422,2.322492 -14.2766,6.567967"
            id="path3591"
            style="fill:none;stroke:#000000;stroke-width:1px;stroke-linecap:butt;stroke-linejoin:miter;stroke-opacity:1" />
        <path
            d="m 716.08094,52.961179 c 0,0 6.66358,9.321796 6.58678,16.311142 -0.0768,6.989347 -10.2152,16.206068 -16.05246,16.974128 -5.83725,0.76806 -16.43648,3.07224 -25.19237,0.07681 -8.75588,-2.995435 -6.06767,4.377942 -6.06767,4.377942 0,0 9.06311,2.918628 25.96043,1.766538 16.89732,-1.15209 14.82356,-0.691254 14.82356,-0.691254 -0.43098,0.07981 14.21898,1.099634 16.97412,13.287435 2.42371,10.72168 -1.74996,14.5251 -1.07528,14.28592 0.0882,0.37646 -3.32968,6.35124 -12.21216,8.60227 -0.69035,0.17495 4.08648,-1.43453 3.53308,-8.67908 -0.5284,-1.23945 1.10144,-3.58245 -9.83117,-5.22281 -13.82416,-2.07421 -41.16802,0.76806 -45.92999,-4.68516 -4.76197,-5.45323 -5.28797,-15.229808 -0.92167,-20.891233 3.84741,-4.98863 4.31244,0.656893 7.62003,-3.062922 0.38572,-0.712882 2.28839,-2.441547 -0.46084,-3.609883 -4.06914,-1.729256 -3.12644,-3.093303 -4.24056,-3.6192 0.15361,-0.691254 -4.32546,-12.972979 1.76653,-21.889712 3.62991,-5.313022 5.69848,-9.644049 18.35664,-9.370333 12.59699,0.272394 26.363,6.039406 26.363,6.039402 z"
            id="path3593"
            style="fill:none;stroke:#000000;stroke-width:1px;stroke-linecap:butt;stroke-linejoin:miter;stroke-opacity:1" />
        <path
            d="m 697.57057,47.713035 -5.46635,-0.671731 c -6.68244,12.504632 -3.97014,27.809584 1.12935,40.749254 1.70404,0.109393 2.9318,-0.177218 4.022,-0.272436 4.62128,-6.934141 8.91887,-22.666368 0.315,-39.805087 z"
            id="path3597"
            style="fill:none;stroke:#000000;stroke-width:1px;stroke-linecap:butt;stroke-linejoin:miter;stroke-opacity:1" />
        <path
            d="m 667.13697,117.50649 c -0.90143,5.8809 0.13008,9.60145 4.14753,9.98478 17.36391,2.7572 34.05458,4.03326 48.54139,0.46084"
            id="path3599"
            style="fill:none;stroke:#000000;stroke-width:1px;stroke-linecap:butt;stroke-linejoin:miter;stroke-opacity:1" />
        <path
            d="m 725.09345,51.468625 c 0,0 6.78876,-6.028415 5.26808,-3.693083 -1.52068,2.335332 -9.55857,6.408586 -5.81118,6.137035 3.7474,-0.27155 9.23271,-9.667188 8.0922,-6.191345 -1.14051,3.475843 -9.39564,6.517206 -7.98358,7.657717 1.41206,1.140511 9.55857,-10.264599 9.50426,-7.331857 -0.0543,2.932743 -11.78528,8.852538 -8.90685,9.504259 2.87844,0.65172 12.21976,-12.491311 10.59046,-9.069778 -1.6293,3.421533 -12.49131,9.612878 -9.28702,10.427529 3.2043,0.814651 11.51373,-12.056831 10.15598,-8.689608 -1.35775,3.367223 -9.39563,8.200817 -7.00599,8.961158 2.38964,0.760341 9.28702,-12.654241 7.65771,-7.874957 -1.6293,4.779284 -9.88442,11.40511 -6.57151,9.667189 3.31291,-1.737922 8.49671,-7.482157 8.49671,-7.482157"
            id="path3601"
            style="fill:none;stroke:#000000;stroke-width:1px;stroke-linecap:butt;stroke-linejoin:miter;stroke-opacity:1" />
        <path
            d="m 671.97242,55.388815 c 0,0 19.91679,-12.54496 11.68247,-6.255522 -6.02825,4.604422 -14.39524,8.962062 -11.67666,8.825383 3.05382,-0.153533 18.62895,-13.077115 15.04388,-7.847802 -2.77443,4.046889 -20.0958,11.838673 -16.40164,10.536149 5.55537,-1.958768 22.48436,-12.925791 16.61888,-6.625825 -5.86549,6.299965 -23.61823,7.675931 -18.70649,9.37759 4.91174,1.701659 19.14097,-10.572412 18.38063,-6.879328 -0.76034,3.693083 -25.18383,7.970201 -18.67464,9.144555 6.50919,1.174354 20.73842,-11.751438 18.56602,-7.189393 -2.1724,4.562044 -25.88359,10.257295 -18.64435,10.125171 7.23924,-0.132123 19.73055,-10.233792 17.77539,-5.780368 -1.95516,4.453424 -17.16198,6.408586 -15.6413,8.037887 1.52069,1.629302 17.2706,-9.124088 15.85854,-5.431004 -1.41206,3.693083 -23.13608,7.168926 -15.85854,7.494786 7.27755,0.325861 17.70508,-9.775808 15.96716,-4.887904 -1.73792,4.887904 -19.00852,6.843066 -15.6413,7.168926 3.36723,0.325861 18.3568,-9.015468 15.0982,-3.910323 -3.2586,5.105144 -19.443,4.344804 -14.77234,5.105144 4.67067,0.760341 19.76886,-6.625825 16.07578,-2.606882 -3.69308,4.018944 -19.22576,3.801703 -14.12061,4.344804 5.10514,0.5431 19.98609,-4.562044 14.77233,-1.520681 -5.21376,3.041362 -17.59646,2.498262 -13.46889,3.367223 4.12756,0.86896 17.92231,-3.149983 14.01199,-0.543101 -3.91032,2.606882 -15.31543,0.868961 -10.97063,2.063782 4.3448,1.194821 13.90337,-2.281022 11.29649,-0.32586 -2.60688,1.955161 -13.36027,1.629301 -9.12409,2.281022 4.23619,0.65172 12.49131,-3.367223 9.55857,-0.977581 -2.93274,2.389642 -7.71203,3.258603 -3.69308,3.041362 4.01894,-0.21724 5.49918,-4.854711 4.79246,-1.457053 -3.68757,3.100367 -2.27019,1.977348 0.9644,1.565674"
            id="path3603"
            style="fill:none;stroke:#000000;stroke-width:1px;stroke-linecap:butt;stroke-linejoin:miter;stroke-opacity:1" />
        <path
            d="m 700.7012,52.067776 c 0,0 2.84182,-3.072241 2.38099,-1.305702 -0.46084,1.766538 -4.22434,3.149046 -2.07377,3.149046 2.15057,0 6.22129,-5.069197 5.22281,-3.225852 -0.99848,1.843344 -8.27069,5.862119 -5.40265,5.350448 2.86805,-0.51167 8.85892,-6.886569 8.01406,-4.659194 -0.84487,2.227374 -9.60076,5.683644 -6.75893,6.221286 2.84182,0.537642 11.16212,-9.080452 10.15102,-6.076346 -1.01111,3.004106 -10.15102,8.226914 -9.22935,8.150108 0.92167,-0.07681 13.59466,-7.834212 11.82812,-5.222808 -1.76653,2.611404 -12.44257,7.373377 -11.06006,7.450183 1.38251,0.07681 14.0555,-7.603795 12.7498,-5.299615 -1.30571,2.30418 -14.59314,6.144481 -12.13535,7.142959 2.45779,0.998478 15.82203,-7.603795 13.74827,-5.146003 -2.07376,2.457793 -18.12621,5.837257 -13.28744,6.989347 4.83878,1.15209 18.56134,-7.78085 15.42515,-5.311336 -3.13619,2.469514 -17.4221,6.693844 -15.11792,7.845934 2.30418,1.15209 18.04941,-6.835734 15.20759,-4.838778 -2.84183,1.996956 -19.50873,6.989346 -15.74523,7.6806 3.76349,0.691254 19.2015,-8.83269 16.28287,-5.222808 -2.91863,3.609882 -18.66386,5.146002 -16.12926,6.605316 2.5346,1.459315 18.81747,-6.14448 16.97412,-3.8403 -1.84334,2.30418 -19.89275,4.915585 -17.43496,6.221287 2.45779,1.305702 17.05093,-4.608361 16.6669,-4.070719 -0.38403,0.537642 -19.73914,5.299615 -16.59009,6.221287 3.14904,0.921672 18.43344,-4.915585 15.97565,-3.609882 -2.4578,1.305702 -18.97109,3.917106 -15.89885,5.299614 3.07224,1.382508 14.90037,-4.22433 13.74828,-2.765016 -1.15209,1.459314 -17.58858,3.149046 -14.97717,4.454748 2.6114,1.305702 14.51633,-3.609882 13.44105,-2.68821 -1.07529,0.921672 -16.89732,2.995434 -14.43953,3.993912 2.45779,0.998478 15.13078,-3.149046 13.74827,-2.227374 -1.3825,0.921672 -17.58857,2.534598 -13.90188,3.686688 3.68669,1.152091 13.78284,-4.218246 12.28896,-1.92015 -1.49389,2.298096 -14.43953,0.921672 -13.97869,2.150568 0.46083,1.228897 5.12486,3.148177 5.12486,3.148177"
            id="path3605"
            style="fill:none;stroke:#000000;stroke-width:1px;stroke-linecap:butt;stroke-linejoin:miter;stroke-opacity:1" />
        <path
            d="m 664.19798,93.787271 c 0.99149,-0.228358 5.87939,-7.397285 6.58543,-5.713673 0.70603,1.683611 -7.98358,7.223236 -6.35428,7.766337 1.6293,0.5431 9.61288,-9.178399 8.90685,-6.354276 -0.70603,2.824122 -8.41806,6.625826 -7.98358,7.874957 0.43448,1.249131 9.34133,-9.232708 8.52668,-5.811175 -0.81465,3.421533 -13.95768,9.287019 -9.12409,9.884429 4.83359,0.59741 11.07925,-10.75339 10.75339,-8.363748 -0.32586,2.389642 -12.81717,10.536148 -10.10167,10.536148 2.7155,0 13.03441,-14.826642 12.9801,-10.916318 -0.0543,3.910323 -20.09472,14.174918 -11.45942,12.980098 8.6353,-1.19482 12.65424,-14.93526 12.70855,-12.111137 0.0543,2.824122 -14.77233,13.143027 -12.59993,14.174927 2.1724,1.03189 14.82664,-16.238709 14.98958,-13.360277 0.16293,2.878433 -15.85854,13.903377 -12.27408,14.500787 3.58447,0.59741 16.13009,-18.08525 15.69561,-15.206817 -0.43448,2.878432 -15.36975,15.858537 -13.08872,16.075777 2.28102,0.21724 14.71802,-17.705079 14.71802,-15.043886 0,2.661192 -10.97063,14.718026 -11.29649,15.586986 -0.32586,0.86896 13.03441,-18.248179 13.30596,-15.912847 0.27155,2.335332 -12.54562,17.053357 -10.2646,16.999047 2.28102,-0.0543 13.08872,-22.538672 13.5232,-17.270597 0.43448,5.268075 -14.77233,18.411107 -11.40511,17.813697 3.36723,-0.59741 16.51026,-22.755911 16.02147,-18.139557 -0.48879,4.616354 -17.48784,19.714547 -13.08872,18.030937 4.39911,-1.68361 18.46541,-21.995571 17.97662,-18.791278 -0.48879,3.204293 -22.59298,24.059348 -14.55509,18.519728 8.03789,-5.53963 18.30249,-21.506781 18.73697,-18.682658 0.43448,2.824122 -17.92232,19.497308 -13.84907,18.682658 4.07326,-0.81465 16.61888,-21.34385 16.67319,-17.868007 0.0543,3.475843 -18.3568,19.768857 -12.70855,17.868007 5.64824,-1.90085 16.18439,-21.778331 16.2387,-17.542147 0.0543,4.236184 -15.26112,18.736967 -12.32838,17.596457 2.93274,-1.14051 16.83612,-22.810222 16.83612,-17.650767 0,5.159455 -18.24818,19.280067 -13.03442,18.085247 5.21377,-1.19482 16.83612,-21.18092 16.40164,-16.999046 -0.43448,4.181874 -17.16198,17.650766 -10.97063,16.347326 6.19134,-1.30344 14.66371,-20.5292 14.17492,-15.695606 -0.48879,4.833596 -16.94473,17.759386 -11.24218,16.238706 5.70256,-1.52068 14.6094,-20.366269 13.57751,-14.174924 -1.03189,6.191344 -14.93526,15.152504 -9.93873,14.609404 4.99652,-0.5431 12.38269,-15.967155 12.437,-12.16545 0.0543,3.8017 -14.98958,16.67318 -8.74392,13.03441 6.24565,-3.63877 12.32838,-13.957682 11.13356,-9.28702 -1.19482,4.67067 -14.77233,10.69908 -8.79823,10.59046 5.97411,-0.10862 11.78528,-10.2646 10.48184,-7.33186 -1.30344,2.93275 -10.59046,9.44995 -7.33186,9.7215 3.25861,0.27155 7.16893,-9.2327 7.22324,-5.81117 0.0543,3.42153 -9.61288,6.84306 -6.89738,7.6034 2.71551,0.76035 7.65772,-7.82064 6.89738,-4.61635 -0.76034,3.20429 -9.12409,6.57152 -6.89738,7.006 2.22672,0.43448 8.20082,-6.89738 6.24566,-3.36723 -1.95516,3.53016 -9.50426,4.18188 -6.84307,4.72498 2.6612,0.5431 8.29126,-3.34373 6.00855,-1.07079 -2.28271,2.27295 -6.60596,2.91733 -6.60596,2.91733"
            id="path3607"
            style="stroke:#000000;stroke-width:1px;stroke-linecap:butt;stroke-linejoin:miter;stroke-opacity:1" />
    </g>
</svg>
