<?xml version="1.0" encoding="UTF-8" standalone="no"?>
<!-- Created with Inkscape (http://www.inkscape.org/) -->

<svg
    xmlns:dc="http://purl.org/dc/elements/1.1/"
    xmlns:cc="http://creativecommons.org/ns#"
    xmlns:rdf="http://www.w3.org/1999/02/22-rdf-syntax-ns#"
    xmlns:svg="http://www.w3.org/2000/svg"
    xmlns="http://www.w3.org/2000/svg"
    xmlns:sodipodi="http://sodipodi.sourceforge.net/DTD/sodipodi-0.dtd"
    xmlns:inkscape="http://www.inkscape.org/namespaces/inkscape"
    version="1.1"
    width="476"
    height="97"
    id="svg2"
    inkscape:version="0.48.4 r9939"
    sodipodi:docname="underscore.svg">
    <sodipodi:namedview
        pagecolor="#ffffff"
        bordercolor="#666666"
        borderopacity="1"
        objecttolerance="10"
        gridtolerance="10"
        guidetolerance="10"
        inkscape:pageopacity="0"
        inkscape:pageshadow="2"
        inkscape:window-width="1311"
        inkscape:window-height="744"
        id="namedview27"
        showgrid="false"
        inkscape:zoom="3.6603175"
        inkscape:cx="379.34473"
        inkscape:cy="52.558663"
        inkscape:window-x="55"
        inkscape:window-y="24"
        inkscape:window-maximized="1"
        inkscape:current-layer="svg2" />
    <metadata
        id="metadata8">
        <rdf:RDF>
            <cc:Work
                rdf:about="">
                <dc:format>image/svg+xml</dc:format>
                <dc:type
                    rdf:resource="http://purl.org/dc/dcmitype/StillImage" />
                <dc:title />
            </cc:Work>
        </rdf:RDF>
    </metadata>
    <style>
        svg path{
        animation-fill-mode: forwards;
        animation-iteration-count: 1;
        animation-name: draw;
        animation-timing-function: linear;
        stroke-dashoffset: 250;
        stroke-dasharray : 250;
        animation-duration: 5s;
        fill : none;
        stroke:#000000;
        stroke-width : 1px;
        stroke-linecap:butt;
        stroke-linejoin:miter;
        stroke-opacity:1;
        }

        @keyframes draw {
        to {stroke-dashoffset: 0;}
        }

    </style>
    <defs
        id="defs6" />
    <path
        d="M 59.017045,54.403408 58.727273,11.130682 c 22.066922,30.145856 32.117504,46.015898 30.522728,42.5 l 0.09659,-42.789773"
        id="n_letter"
        style="fill:#9c9c9c;fill-opacity:0;stroke:#0e1f30;stroke-width:2;stroke-linecap:butt;stroke-linejoin:miter;stroke-opacity:1;stroke-miterlimit:4; "
        inkscape:label="#n_letter" />
    <path
        d="m 12.286134,11.116829 0.579546,30.136364 c 0.356737,15.995983 31.215314,16.15507 30.909091,-0.193182 l -0.193182,-29.75"
        id="u_letter"
        style="fill:#9c9c9c;fill-opacity:0;stroke:#0e1f30;stroke-width:2;stroke-linecap:butt;stroke-linejoin:miter;stroke-opacity:1;stroke-miterlimit:4; " />
    <path
        d="m 105.49202,54.161932 -0.28977,-43.272726 c 44.5185,-4.4306533 39.89051,49.062163 0.0966,43.272727"
        id="d_letter"
        style="fill:#9c9c9c;fill-opacity:0;stroke:#0e1f30;stroke-width:2;stroke-linecap:butt;stroke-linejoin:miter;stroke-opacity:1;stroke-miterlimit:4; " />
    <g
        id="e_letter"
        inkscape:label="#e_letter"
        style="stroke-width:2;stroke-miterlimit:4; ">
        <path
            d="m 170.72444,11.565341 -22.50568,-0.193182 0,43.369319 22.50568,0.193181"
            id="path3828-8"
            style="fill:none;stroke:#0e1f30;stroke-width:2;stroke-miterlimit:4;stroke-opacity:1; "
            inkscape:connector-curvature="0" />
        <path
            d="m 148.21876,31.221591 19.94601,0.289772"
            id="path3848"
            style="fill:#102132;fill-opacity:0;stroke:#102132;stroke-width:2;stroke-miterlimit:4;stroke-opacity:1; "
            inkscape:connector-curvature="0" />
    </g>
    <g
        id="r_letter"
        style="stroke-width:2;stroke-miterlimit:4; ">
        <path
            d="m 182.55682,53.727273 0.0966,-43.369319 12.26704,0 c 15.12531,0.100468 15.14164,23.672445 0.19319,23.568182 l -12.75,-0.386363"
            id="path3850"
            style="fill:#102132;fill-opacity:0;stroke:#102132;stroke-width:2;stroke-miterlimit:4;stroke-opacity:1; "
            inkscape:connector-curvature="0" />
        <path
            d="M 196.9398,33.888493 208.25,53.630682"
            id="path3852"
            style="fill:#102132;fill-opacity:0;stroke:#102132;stroke-width:2;stroke-miterlimit:4;stroke-opacity:1; "
            inkscape:connector-curvature="0" />
    </g>
    <path
        d="m 216.94318,53.051136 c 4.59206,0.811913 11.55358,2.973045 16.22727,1.159091 12.17041,-3.079733 11.90291,-16.536688 2.31819,-19.994318 -7.71594,-2.481434 -14.57859,-5.133524 -15.9375,-8.886364 -2.10408,-4.090602 -1.81233,-11.047357 4.15341,-13.909091 6.11114,-2.2757285 12.01324,-0.997961 17.86931,1.0625"
        id="s_letter"
        style="fill:#102132;fill-opacity:0;stroke:#102132;stroke-width:2;stroke-miterlimit:4;stroke-opacity:1; " />
    <path
        d="M 283.10796,12.289773 C 243.7407,-1.4026378 240.53045,61.122807 281.36932,53.244318"
        id="c_letter"
        style="fill:#102132;fill-opacity:0;stroke:#102132;stroke-width:2;stroke-miterlimit:4;stroke-opacity:1; " />
    <path
        d="m 292.38069,39.431818 c -0.39632,21.717383 37.12658,22.520742 36.80113,-1.642045 L 328.79546,27.647727 C 328.65349,1.5077939 292.00638,2.2230025 292.1875,28.323863 z"
        id="o_letter"
        style="fill:#102132;fill-opacity:0;stroke:#102132;stroke-width:2;stroke-miterlimit:4;stroke-opacity:1; " />
    <g
        id="e_letter_2"
        inkscape:label="#e_letter_2"
        style="stroke-width:2;stroke-miterlimit:4; ">
        <path
            d="m 400.61626,10.943393 -22.50568,-0.193182 0,43.369319 22.50568,0.193181"
            id="path3828-8-2"
            style="fill:none;stroke:#0e1f30;stroke-width:2;stroke-miterlimit:4;stroke-opacity:1; "
            inkscape:connector-curvature="0" />
        <path
            d="m 378.11058,30.599643 19.94601,0.289772"
            id="path3848-5"
            style="fill:#102132;fill-opacity:0;stroke:#102132;stroke-width:2;stroke-miterlimit:4;stroke-opacity:1; "
            inkscape:connector-curvature="0" />
    </g>
    <path
        d="m 439.63843,54.104066 c 4.59206,0.81192 10.2496,2.490095 16.22727,1.1591 12.17041,-3.07974 12.38101,-17.492891 2.31819,-19.99432 -7.71594,-2.48144 -14.57859,-5.13353 -15.9375,-8.88637 -2.10408,-4.0906 -1.81233,-11.047354 4.15341,-13.909088 6.11114,-2.275729 12.01324,-0.997961 17.86931,1.0625"
        id="s_letter_2"
        style="fill:#102132;fill-opacity:0;stroke:#102132;stroke-width:2;stroke-miterlimit:4;stroke-opacity:1; " />
    <path
        d="m 411.53528,53.521379 c 0.087,0.931788 2.54964,1.741505 2.88039,-0.109861 l -0.0302,-0.678547 c -0.16231,-1.309436 -2.33511,-1.830272 -2.86526,0.04524 z"
        id="dott_letter"
        style="fill:#102132;fill-opacity:0;stroke:#102132;stroke-width:2;stroke-miterlimit:4;stroke-opacity:1; "
        inkscape:label="#dott_letter" />
    <path
        d="m 427.83174,10.53209 0.40981,46.170859 c -0.0805,8.437579 -7.64279,9.361183 -13.66002,8.33261"
        id="j_letter"
        style="fill:#102132;fill-opacity:0;stroke:#102132;stroke-width:2;stroke-miterlimit:4;stroke-opacity:1; " />
    <path
        d="m 209.54466,81.290979 249.15871,0"
        id="path3990"
        style="fill:#102132;fill-opacity:0;stroke:#102132;stroke-width:9;stroke-miterlimit:4;stroke-opacity:1; " />
    <path
        d="m 13.386816,80.198179 196.157844,1.0928"
        id="path4000"
        style="fill:#0071b5;fill-opacity:0;stroke:#0071b5;stroke-width:9;stroke-miterlimit:4;stroke-opacity:1; " />
    <g
        id="r_letter_2"
        style="stroke-width:2;stroke-miterlimit:4; ">
        <path
            style="fill:#102132;fill-opacity:0;stroke:#102132;stroke-width:2;stroke-miterlimit:4;stroke-opacity:1; "
            id="path3850-6"
            d="m 342.3574,54.027699 0.0966,-43.369319 12.26704,0 c 15.12531,0.100468 15.14164,23.672445 0.19319,23.568182 l -12.75,-0.386363" />
        <path
            style="fill:#102132;fill-opacity:0;stroke:#102132;stroke-width:2;stroke-miterlimit:4;stroke-opacity:1; "
            id="path3852-6"
            d="m 356.74038,34.188919 11.3102,19.742189" />
    </g>
</svg>
